<?xml version="1.0" encoding="UTF-8"?><svg id="_レイヤー_2" xmlns="http://www.w3.org/2000/svg" viewBox="0 0 970.5 644.89"><defs><style>.cls-1,.cls-2,.cls-3{stroke:#c4b666;stroke-linecap:round;}.cls-1,.cls-3{stroke-miterlimit:10;stroke-width:4px;}.cls-1,.cls-4{fill:#c4b666;}.cls-2{stroke-linejoin:round;stroke-width:13px;}.cls-2,.cls-3{fill:none;}.cls-4{stroke-width:0px;}</style></defs><g id="_レイヤー_3"><path class="cls-4" d="m130.22,189.07c-7.61,13.02-20.2,23.04-34.59,27.53,12.75,3.77,23.6,12.64,31.43,23.39,7.82,10.75,12.81,23.32,16.42,36.12-4.87-29.8,11.51-61.84,38.52-75.34-8.18-.33-16.2-3.71-22.15-9.33-5.54-5.24-9.17-12.17-12.33-19.11-2.18-4.79-3.73-13.41-8.59-16.03-2.22,11.53-2.45,22.09-8.7,32.78Z"/><circle class="cls-4" cx="362" cy="309.27" r="21"/><circle class="cls-4" cx="231.94" cy="431.86" r="10.59"/><circle class="cls-4" cx="6" cy="302.27" r="6"/><circle class="cls-4" cx="100" cy="340.27" r="5"/><circle class="cls-4" cx="325.82" cy="462.21" r="9.18"/><circle class="cls-4" cx="118.29" cy="480.56" r="12.71"/><path class="cls-4" d="m500.14,86.35c-3.66,2.61-8.27,3.38-12.71,4.08,11.76,3.23,21.46,13.05,24.55,24.84-.17-3.88.33-7.91,2.27-11.28,4.08-7.1,13.09-9.36,21.12-10.95-7.55-1.19-15.89-2.84-20.41-9-2.8-3.81-2.56-11.43-6.24-13.76-1.98,5.88-3.13,12.19-8.57,16.08Z"/><path class="cls-1" d="m503.05,26.5l.75,10.4"/><path class="cls-3" d="m568.19,92.46c3.76-.06,7.51-.11,11.27-.17"/><path class="cls-3" d="m511.42,140.24c-.03,5.28.39,10.57,1.26,15.78"/><path class="cls-3" d="m513.58,163.05c-.18,2.37.1,4.78.82,7.04"/><path class="cls-3" d="m457.26,87.03c-4.98.04-9.97.32-14.92.84"/><path class="cls-3" d="m537.75,55.75c2.92-3.84,5.85-7.67,8.77-11.51"/><path class="cls-3" d="m552.33,38.78c3.77-3.67,6.99-7.89,9.54-12.49"/><path class="cls-3" d="m550.13,119.48c4.61,3.18,9.22,6.35,13.83,9.53"/><path class="cls-3" d="m571.38,136.11c3.78,1.64,7.29,3.9,10.33,6.67"/><path class="cls-3" d="m534.74,133.97c2.44,1.3,4.63,3.06,6.41,5.17"/><path class="cls-3" d="m546.19,150.14c1.15,1.35,2.13,2.85,2.91,4.44"/><path class="cls-3" d="m490.43,130.84c-2.81,1.48-5.39,3.4-7.62,5.67"/><path class="cls-3" d="m474.95,146.44c-4.89,4.94-9.88,9.79-14.98,14.53"/><path class="cls-3" d="m476.13,117.45c-4.19,3.83-8.63,7.39-13.27,10.66"/><path class="cls-3" d="m465.69,109.49c-7.98,2.6-15.79,5.71-23.37,9.31"/><path class="cls-3" d="m454.47,135.48c-6.76,3.31-13.19,7.29-19.17,11.86"/><path class="cls-3" d="m479.31,61.44c-3.14-1.21-6.04-3.02-8.49-5.31-1.66-1.55-3.22-3.38-5.39-4.05"/><path class="cls-3" d="m458.42,43.89c-6.43-4.06-12.85-8.12-19.28-12.18"/><path class="cls-3" d="m549.32,72.38c3.52-3.54,7.66-6.46,12.18-8.59"/><path class="cls-3" d="m410.81,87.77c6.18.37,12.38.55,18.58.53"/><path class="cls-3" d="m501.77,2c-.21,4.88-.02,9.78.56,14.64"/><path class="cls-3" d="m478.83,34.78c2.96,3.04,5.45,6.54,7.36,10.34"/><path class="cls-3" d="m529.31,35.21l-4.45,9.6"/><path class="cls-3" d="m455.07,67.23c2.99,1.89,5.98,3.79,8.98,5.68"/><path class="cls-3" d="m557.49,107.89c3.99,1.45,8.03,2.76,12.12,3.92"/><path class="cls-3" d="m589.03,92.3c3.94-.04,7.88-.08,11.83-.11"/><path class="cls-3" d="m560,78.79c4.19-1.69,8.55-2.96,13-3.78"/></g><g id="_レイヤー_4"><polyline class="cls-2" points="488.5 638.39 515.76 483.93 645.99 488.47 688.39 350.67 964 452.13"/></g></svg>