<?xml version="1.0" encoding="UTF-8"?><svg id="_レイヤー_2" xmlns="http://www.w3.org/2000/svg" viewBox="0 0 452 56.82"><defs><style>.cls-1{stroke-width:0px;}</style></defs><g id="_レイヤー_1-2"><path class="cls-1" d="m25.92,36.31c-5.29,0-9,0-13.4.5h-.06c-1.07,0-2.71-2.27-2.71-3.21,5.85.69,13.84,1.01,16.23,1.01h10.07c.44,0,2.01-1.57,2.01-1.57.19-.19.31-.25.5-.25s4.53,1.82,4.53,3.21c0,.82-1.07,1.26-1.45,1.38-.94.38-1.45.13-1.89,1.82-.82,3.15-2.77,11.33-3.71,15.48-.31,1.32-1.51,1.95-2.52,1.95-.76,0-1.38-.38-1.38-1.2,0-.13,0-.31.06-.5,2.52-8.24,4.47-16.55,4.47-18.25,0-.25-.06-.38-.31-.38h-10.45Z"/><path class="cls-1" d="m28.32,25.99c-1.7,0-6.86.06-9.44.57h-.06c-.57,0-2.27-2.33-2.27-3.02,3.27.69,10.19.88,11.89.88h1.76c.13,0,.63-.19.76-.5.31-.63,2.01-3.65,2.71-3.65.06,0,.19,0,.25.06.38.19,4.97,3.4,4.97,4.72,0,.44-.31.94-1.2.94h-9.38Z"/><path class="cls-1" d="m404.05,54.68c.25-6.92.57-18.44.69-28.06-4.53,10.51-12.08,14.22-12.65,14.22-.06,0-.13,0-.13-.06,0-.13.25-.38.82-.82,2.26-1.7,7.24-8.43,10.95-17.05.44-1.01.88-2.89,1.07-4.34v-.13h-.31c-2.52,0-2.96.06-6.86.57h-.06c-.76,0-2.52-2.33-2.52-3.02,4.72.69,6.99.88,9.56.88h.19v-3.46c0-6.42-.06-8.5-.57-11.01-.06-.19-.06-.38-.06-.44s0-.13.13-.13c.88,0,5.92.88,5.92,2.01,0,.31-.25.69-.94,1.01-1.13.57-1.7.31-1.76,2.71-.06,2.2-.13,5.41-.13,9.31h1.2c.19,0,.57-.19.76-.5,1.2-1.89,2.08-2.77,2.52-2.77.69,0,2.96,1.82,4.15,3.71.06.06.06.19.06.38,0,.31-.19.76-1.13.76h-7.55v6.1c3.33.13,7.99,1.7,7.99,4.66,0,.94-.57,1.7-1.39,1.7-.57,0-1.26-.38-1.95-1.38-1.07-1.57-2.96-3.27-4.66-4.34.06,9.5.31,20.58.57,29.26,0,.94-.75,2.2-2.33,2.2-.82,0-1.57-.5-1.57-1.82v-.13Zm28.5-26.37c1.26,3.59,2.83,6.8,4.59,9.63,1.95-1.13,5.29-3.27,6.23-6.17.06-.13.13-.19.25-.19.82,0,4.4,3.15,4.4,4.22,0,.38-.44.63-1.26.63-.31,0-.63,0-1.01-.06-.31-.06-.63-.13-.94-.13s-.69.06-1.01.25c-.75.38-3.15,1.64-5.85,2.64,3.52,5.1,7.93,8.68,13.21,10.26.57.19.82.31.82.38,0,.5-3.9.76-5.85,2.2-.19.13-.38.25-.63.25-.63,0-8.62-6.04-13.21-20.83-.06,7.55-.13,15.29-.13,15.35,0,.82.25,2.64.25,3.84-.06,5.47-5.54,6.04-5.98,6.04s-.5-.31-.69-.75c-.57-1.57-6.29-3.65-6.29-4.09,0-.06.13-.13.38-.13.13,0,.44,0,.76.06,2.77.38,4.91.76,6.42.76,1.64,0,2.45-.44,2.58-2.01,0-.44.06-4.97.06-10.57-4.78,4.72-10.32,9.06-12.84,11.2-.5.44-.5.94-.94.94-.69,0-3.71-2.08-4.03-2.45-.06-.06-.06-.13-.06-.19s0-.13.06-.13c3.59-.69,13.09-7.05,17.81-10.51v-10.45c-2.83,0-5.79.19-10.32.69h-.06c-1.13,0-3.08-2.45-3.08-3.27,5.16.69,10.01.94,13.47,1.01,0-2.27-.06-4.28-.06-5.92h-.88c-3.02,0-2.71.06-7.61.57h-.06c-1.07,0-2.89-2.27-2.89-3.02,5.6.69,7.74.88,10.89.88h.57v-2.27c-.06-1.13,0-2.27-.19-3.52h-.88c-3.15,0-3.9.06-9,.63h-.06c-1.07,0-2.77-2.39-2.77-3.15,5.79.76,8.81.94,12.08.94h4.09c3.08-5.85,3.59-7.74,4.03-10.13.06-.5.06-.63.19-.63.06,0,.19.06.38.13.06.06,3.27,1.76,4.4,2.64.31.25.5.57.5.82,0,.44-.5.82-1.76.88-.94.06-.88.31-1.45.94-1.2,1.32-3.08,3.4-5.22,5.35h5.6c.25,0,.69-.31.88-.63,1.01-1.45,2.33-2.77,2.83-2.77.69,0,4.72,2.71,4.72,4.09,0,.44-.25.88-1.26.88h-12.77c.13.13.25.31.25.5,0,.25-.25.5-.69.69-1.01.38-1.13.38-1.13,2.45v2.14h3.96c.25,0,.57-.38.82-.63,1.07-1.26,2.27-2.33,2.58-2.33.19,0,4.66,2.01,4.66,3.71,0,.38-.31.82-1.2.82h-10.82l-.06,5.92h7.99c.31,0,.76-.25.94-.57.13-.13,2.08-2.89,2.64-2.89.82,0,5.22,2.77,5.22,4.28,0,.38-.31.76-1.26.76h-15.29Zm-16.3,4.4c2.27,0,9,1.01,9,4.66,0,1.26-.88,2.27-1.89,2.27-.63,0-1.39-.44-2.01-1.45-.88-1.45-3.65-3.59-5.47-4.72-.57-.38-.82-.57-.82-.63,0-.13.31-.13.94-.13h.25Zm8.37-24.41c-.57-1.45-2.71-3.84-4.15-5.03-.25-.19-.44-.44-.44-.57,0-.19.13-.25.5-.25,1.32,0,7.86,1.76,7.86,5.35,0,1.32-.88,2.33-1.82,2.33-.69,0-1.45-.5-1.95-1.82Z"/><path class="cls-1" d="m28.13,7.17s.03-.07.05-.1c.14-.2.27-.4.41-.6.06-.08.11-.17.17-.25.02-.03.05-.06.07-.1,0,0,0-.01-.01-.02.57-.88.38-.69,1.64-.94,1.45-.31,2.01-.82,2.01-1.26,0-1.13-5.79-3.9-5.79-3.9-.19,0-.25.19-.31.44-.25,1.01-.57,2.96-1.32,4.28C17.68,18,8.81,27.18.88,32.34c-.63.38-.88.69-.88.82,0,.06.06.13.19.13,1.7,0,14.54-5.66,27.94-26.11,0,0,0,0,0,.01,0,0,0-.01,0-.02Z"/><path class="cls-1" d="m58.27,27.12c-10.11-1.42-23.33-12.56-28.54-19.69-.03.02-.06.04-.08.06-.1.08-.21.14-.32.21-.12.07-.25.13-.38.19-.09.04-.19.06-.28.08,8.97,13.64,21.53,22.49,23.38,22.49.19,0,.38-.06.57-.19,2.2-1.51,6.42-2.39,6.42-2.89,0-.06-.19-.19-.75-.25Z"/><path class="cls-1" d="m104.39,6.04c-.19,0-.31.06-.57.19-.19.06-1.45,1.2-1.7,1.57-.31.38-.76.57-1.13.57h-19.44l-.25-.13c-1.82-1.26-5.66-2.58-5.85-2.58-.13,0-.19.06-.19.19s.06.31.13.63c.57,2.64.82,8.62.82,10.38.06,3.65.13,7.68.13,11.77,0,8.68-.19,17.87-.57,25.23v.19c0,1.19.69,1.64,1.45,1.64,1.07,0,2.33-.82,2.33-2.08,0-.94-.06-2.01-.06-3.02h20.52c-.03-.57-.02-1.13.01-1.7h-20.53v-19.44h23.6c0,6.19-.12,12.93-.18,19.14,0,0,0,0,0,0v2.08s0,0,0,0v3.06c0,1.13.69,1.57,1.45,1.57,1.01,0,2.2-.82,2.2-2.2v-.06c-.25-7.61-.5-23.28-.5-32.47,0-8.12.13-8.31,1.2-8.81,1.2-.57,2.14-1.07,2.14-1.83,0-1.38-4.59-3.9-4.97-3.9Zm-24.92,21.71v-14.28c0-2.01.06-2.08,1.32-2.89l.5-.38h20.83c.38,0,.69.44.69.75.19,3.52.25,9.69.25,16.8h-23.6Z"/><path class="cls-1" d="m150.85,13.5c-12.21,0-18.23,10.94-18.23,17.82,0,1.64.32,3.1,1.05,4.1,1.96,2.73,2.6,5.56,4.69,5.56,3.56,0,11.99-9.43,11.99-20.28,0-1.65-.2-3.08-.59-4.13-.36.06-.71.11-1.06.2.18.64.28,1.53.28,2.79,0,9.02-7.34,18.18-10.12,18.18-2.01,0-4.24-3.33-4.24-7.16,0-5.97,4.69-12.99,11.26-15.04.35-.09.62-.15.87-.19.04-.05.35-.11.4-.12.14-.04.28-.07.42-.1.33-.07.7-.17,1.05-.17,0,0,0,0-.01,0,.59-.05,1.18-.14,1.78-.14,9.02.09,13.44,6.33,13.44,12.99,0,5.42-2.6,13.22-15.54,16.86-1.18.36-1.91.73-1.91.96,0,.09.23.18.64.18,3.19,0,19.28-3.69,19.28-17.77,0-7.38-5.15-14.54-15.45-14.54Z"/><path class="cls-1" d="m238.53,29.39c-.63,0-2.64,2.64-3.4,3.84-.19.31-.63.57-1.13.57h-14.98c0-8.43,0-8.56,1.26-9.12.44-.25.76-.57.76-.88,0-.19-.06-.57-1.01-.88h12.58c1.01,0,1.26-.38,1.26-.76,0-.94-1.38-2.14-2.52-2.89,2.77-1.7,7.05-4.78,9-4.85,1.64-.06,2.33-.76,2.33-1.45,0-1.51-4.34-4.28-5.29-4.28-.57,0-1.51,1.07-1.64,1.2-.25.31-.82.57-1.13.57h-16.05s0-.02,0-.03h-3.02s0,.02,0,.03h-15.67c0-1.2-.13-2.52-.44-3.84,0-.19-.13-.25-.25-.25s-.31.13-.38.44c-.88,4.4-2.45,7.3-6.23,10.63-1.07.94-1.51,1.89-1.51,2.71,0,1.07.76,1.82,1.95,1.82,2.2,0,6.1-3.78,6.8-9.94h34.17c.38,0,.69.19.69.5,0,.88-2.33,4.03-4.09,6.23-1.7-.82-1.89-.88-2.01-.88-.76,0-2.52,2.2-3.02,2.96-.19.31-.63.5-1.07.5h-4.78c-3.71,0-12.46,0-19.32-.94v.06c0,.82,1.89,3.21,3.15,3.21h.06c4.28-.44,8.75-.63,12.27-.69.38,1.82.31,3.08.38,4.72,0,.88.06,3.21.06,6.1h-1.95c-3.9,0-17.43-.19-24.41-1.01v.06c0,.82,1.83,3.27,3.08,3.27h.06c6.1-.57,17.11-.75,20.89-.75h2.33c0,2.2.06,4.53.06,6.73,0,3.02-.06,5.66-.13,6.86-.19,2.89-1.45,3.84-3.96,3.84-2.01,0-4.78-.57-8.43-1.26-.38-.06-.69-.13-.88-.13-.13,0-.25.06-.25.13,0,.5,7.05,3.4,7.99,4.59.38.5.69.69,1.26.69,4.78-.25,7.24-3.33,7.24-7.11v-.31c-.06-1.95-.13-4.09-.13-6.1s-.06-5.03-.06-7.93h23.91c1.13,0,1.45-.38,1.45-.76,0-1.57-4.53-5.22-5.85-5.22Z"/><path class="cls-1" d="m215.5,7.55c0,.32.01.65.02.98.25-.01.51-.02.76-.04.61-.04,1.22-.12,1.83-.05.17.02.33.05.5.09,0-.31.02-.63.04-.91.19-3.34.25-3.02,2.01-3.84.57-.25.94-.57.94-1.01,0-1.51-6.1-2.2-6.55-2.2-.13,0-.19,0-.19.13,0,.06,0,.19.06.38.38,1.45.5,3.9.57,6.48Z"/><path class="cls-1" d="m341.39,29.07c.69,1.01,1.38,1.45,1.95,1.45.82,0,1.32-.76,1.32-1.7,0-2.27-3.08-4.66-8.05-4.78v-6.1h8.31c1.01,0,1.26-.44,1.26-.82,0-.94-3.52-4.03-4.47-4.03-.76,0-2.2,2.2-2.58,2.77-.19.31-.63.5-.82.5h-1.7c0-3.9.06-7.11.13-9.44.06-2.45.57-2.27,1.7-2.83.69-.31.94-.69.94-.94,0-1.07-4.53-2.08-5.73-2.08-.13,0-.13.06-.13.13s0,.25.06.44c.25,1.26.57,3.78.57,11.14v3.59h-.13c-2.64,0-5.03-.13-9.82-.88,0,.69,1.7,3.02,2.45,3.02h.06c3.96-.5,4.66-.57,7.17-.57h.25c-.38,6.36-9.19,20.07-12.27,22.46-.57.44-.82.75-.82.88,0,.06.06.06.13.06,1.32,0,9.06-5.29,12.9-15.35-.13,9.44-.31,20.7-.69,28.57v.13c0,1.32.69,1.89,1.51,1.89,1.95,0,2.2-1.82,2.2-2.27-.31-10.19-.44-20.83-.5-29.7,1.76,1.07,3.65,2.83,4.78,4.47Z"/><path class="cls-1" d="m341.95,7.17c0,.69,1.45,2.96,2.45,2.96h.06c3.08-.31,6.54-.44,9.44-.5,0,1.38-.06,2.89-.13,3.78v.19c0,.75.57,1.07,1.2,1.07.82,0,1.76-.5,1.76-1.38,0-.76,0-2.2-.06-3.65h6.73c0,1.26-.06,2.64-.13,3.78v.19c0,.75.57,1.13,1.26,1.13.63,0,1.83-.44,1.83-1.38v-.13c-.13-1.07-.25-2.33-.25-3.59h12.71c1.07,0,1.32-.31,1.32-.63,0-1.7-4.47-4.22-5.1-4.22-.5,0-1.82,1.76-2.45,2.77-.19.31-.63.5-.75.5h-5.73v-1.7c.06-1.45.31-1.64,1.2-2.01.76-.31.94-.63.94-.88,0-.31-.25-.57-.38-.63-1.64-.63-4.47-.82-4.85-.82-.06,0-.13,0-.13.06s.06.19.06.31c.38,1.76.44,4.03.44,4.28v1.38h-4.47c-.63,0-1.38-.06-2.33-.06v-1.64c.13-1.45.38-1.64,1.26-2.01.76-.31.94-.63.94-.88,0-.31-.25-.57-.38-.63-.82-.31-3.84-.82-4.91-.82-.06,0-.13,0-.13.06s.06.19.06.31c.31,1.45.5,3.84.5,4.15,0,.25-.06.75-.06,1.38-3.65-.13-8.24-.31-11.96-.75Z"/><path class="cls-1" d="m382.22,52.73c-11.14-.57-18.18-6.29-20.58-11.51h18.69c1.01,0,1.32-.38,1.32-.82,0-1.07-4.72-4.22-5.1-4.22-.13,0-.25.06-.44.25-.63.63-1.76,1.95-2.39,2.64-.25.25-.63.57-1.01.57h-11.33v-.5c.25-3.08.38-2.89,1.26-3.27.69-.25,1.01-.57,1.01-.82,0-1.2-4.97-1.76-4.97-1.76q-.06,0-.06.06v.25c.13,1.26.19,2.2.19,3.27,0,.63-.06,1.26-.06,1.95,0,.31-.06.5-.06.82-4.09,0-12.4-.13-18-.88,0,.75,1.83,3.08,2.89,3.08h.06c4.66-.5,11.14-.63,14.85-.63-1.7,8.31-9.88,13.53-18.94,14.6-1.13.13-1.64.31-1.64.5s.5.31,1.39.31c3.21,0,18.31-2.08,21.58-14.22,3.78,9.94,14.54,13.47,15.73,13.47.25,0,.38-.19.63-.38,1.57-1.26,5.47-2.27,5.47-2.64,0-.06-.19-.13-.5-.13Z"/><path class="cls-1" d="m373.73,19.7c.44-.31,1.26-.69,1.26-1.38,0-1.26-3.77-3.34-4.15-3.34-.31,0-.76.13-1.76,1.38-.06.06-.25.25-.69.25h-15.73l-.25-.19c-1.51-1.01-4.09-2.08-4.47-2.08-.06,0-.13.06-.13.19,0,.06.06.19.06.38.5,2.39.57,7.49.57,7.74,0,2.39-.06,7.49-.38,11.39v.19c0,.82.57,1.2,1.26,1.2.88,0,1.89-.63,1.89-1.51l-.06-1.2h18.56v1.32c0,.94.63,1.32,1.26,1.32.82,0,1.76-.57,1.76-1.57v-.13c-.13-1.95-.38-8.81-.38-11.07,0-1.45,0-2.08,1.38-2.89Zm-3.92,4.29c-.02.46,0,.96-.07,1.44h.02c0,1.89-.06,3.84-.06,5.66h-18.56c0-1.89-.06-3.9-.06-5.66h15.89c-.03-.33-.05-.65-.02-.98.02-.24.05-.48.1-.72h-15.97v-2.33c.06-2.45.13-2.45,1.01-3.02l.19-.13h16.86c.5,0,.69.63.69,5.47h-.02c0,.09,0,.17,0,.26Z"/><path class="cls-1" d="m282.33,8.42c.18-.06.37-.1.55-.13.42-.05.85-.04,1.27-.05.3,0,.61-.03.9.04.11.03.22.08.33.13.02-.27.03-.55.05-.8.25-3.65.44-2.64,2.14-3.9.38-.25.69-.63.69-1.01,0-1.38-6.54-2.27-6.61-2.27s-.06,0-.06.06,0,.19.06.38c.46,1.88.63,4.7.67,7.54Z"/><path class="cls-1" d="m304.56,8.68c-.5,0-.76.19-1.83,1.26-.25.31-.82.5-1.13.5h-16.3s0-.01,0-.02h-2.96s0,.01,0,.02h-16.42c0-2.14-.31-4.09-.63-4.09-.19,0-.38.13-.44.44-.88,4.4-2.39,7.3-6.17,10.63-1.07.94-1.51,1.89-1.51,2.71,0,1.01.76,1.76,1.83,1.76,2.7,0,6.23-4.22,6.86-9.88h35.43c.25,0,.38.19.38.44,0,1.07-2.77,4.78-4.78,7.11-.19.25-.31.38-.31.44s.06.13.13.13c.13,0,.25-.06.5-.19,2.58-1.38,7.93-5.47,10.13-5.54,1.64-.06,2.33-.88,2.33-1.64,0-1.76-4.85-4.09-5.1-4.09Z"/><path class="cls-1" d="m300.16,24.48c-.5,0-.94.44-1.89,1.38-.19.19-.31.25-.76.25l-12.46-.06c0-2.08.06-3.52.06-3.96.13-2.45-.06-2.52,1.26-3.08.57-.25,1.2-.75,1.2-1.19,0-1.32-5.03-2.08-5.79-2.08-.19,0-.31.06-.31.25,0,.13,0,.25.06.44.44,2.64.57,4.66.57,6.23v3.4h-11.96c-1.7-1.01-4.85-2.27-5.1-2.27q-.06,0-.06.13c0,.06,0,.19.06.38.57,2.39.82,7.24.82,7.49,0,4.91-.19,17.81-.5,23.28v.13c0,1.13.69,1.57,1.45,1.57,1.01,0,2.08-.76,2.08-1.76v-2.89h30.2c0,1.07-.06,2.14-.06,3.08,0,1.01.5,1.45,1.13,1.45.94,0,2.08-.94,2.08-2.14v-.06c-.13-3.71-.38-12.84-.38-19.32,0-1.57,0-3.02.06-4.15,0-.76.44-1.32,1.32-1.82.5-.31,1.39-.63,1.39-1.32,0-1.32-4.09-3.33-4.47-3.33Zm-18,25.99h-13.28c0-3.65-.06-7.49-.06-10.95h13.4c0,4.59,0,8.81-.06,10.95Zm-13.34-12.65c0-2.45-.06-4.66-.06-6.42,0-2.52.13-2.52,1.32-3.27l.44-.38h11.64c0,2.83.06,6.48.06,10.07h-13.4Zm30.33,1.7c0,3.65-.06,7.49-.06,10.95h-14.03c-.06-2.08-.06-6.36-.06-10.95h11.68s0-.09,0-.14c0-.52-.01-1.04-.02-1.56h-11.66v-10.07h13.59c.13,0,.44.25.44.5.13,2.14.13,5.6.13,9.56h0v1.7h0Z"/></g></svg>